<?xml version="1.0" encoding="UTF-8"?>
<svg id="Layer_1" data-name="Layer 1" xmlns="http://www.w3.org/2000/svg" viewBox="0 0 206.55 129.39">
  <defs>
    <style>
      .cls-1, .cls-2 {
        fill: #14213d;
      }

      .cls-2 {
        font-family: Poppins-Bold, Poppins;
        font-size: 52px;
        font-weight: 700;
        letter-spacing: -.02em;
      }

      .cls-2, .cls-3 {
        isolation: isolate;
      }
    </style>
  </defs>
  <g>
    <path class="cls-1" d="m38.81,93.65c-10.9,0-21.4-1.6-30.8-4.6,2.6,5.6,5.9,11.2,9.8,16.9.8,1.2,2.2,2,3.8,2.2,12.4,1.5,23.6,1.3,34,0,1.6-.2,2.9-1,3.8-2.2,3.9-5.6,7.1-11.2,9.8-16.8-9.3,2.9-19.6,4.5-30.4,4.5Z"/>
    <path class="cls-1" d="m38.81,15.25c10.6,0,20.8,1.5,30,4.3-2.6-5.3-5.7-10.7-9.4-16-.8-1.1-2.1-1.9-3.6-2.2C44.41-.45,33.01-.45,21.51,1.35c-1.5.2-2.8,1-3.6,2.2-3.8,5.4-6.9,10.8-9.5,16.1,9.3-2.9,19.6-4.4,30.4-4.4Z"/>
  </g>
  <g>
    <path class="cls-1" d="m38.81,31.65c13,0,25.4,1.4,35.9,3.9-.9-3.3-2-6.7-3.3-10-9.3-3.5-20.6-5.5-32.6-5.5s-23.6,2.1-33.1,5.7c-1.3,3.3-2.4,6.6-3.3,10,10.7-2.7,23.2-4.1,36.4-4.1Z"/>
    <path class="cls-1" d="m75.71,69.85c2.1-10.3,2.1-20.7-.2-31-10.1-2.8-22.8-4.4-36.7-4.4s-27,1.7-37.1,4.5c-2.2,10.3-2.3,20.6-.2,30.8,10.1,2.8,23.1,4.6,37.3,4.6,14,0,26.8-1.7,36.9-4.5Z"/>
    <path class="cls-1" d="m38.81,77.15c-13.3,0-25.9-1.4-36.5-4.1.8,3.3,1.9,6.6,3.1,9.9,9.6,3.7,21,5.8,33.4,5.8s23.5-2.1,33-5.7c1.3-3.3,2.3-6.6,3.2-9.9-10.6,2.6-23.1,4-36.2,4Z"/>
  </g>
  <g class="cls-3">
    <text class="cls-2" transform="translate(89.92 47.88)"><tspan x="0" y="0">Billy</tspan></text>
    <text class="cls-2" transform="translate(89.92 97.88)"><tspan x="0" y="0">Beer</tspan></text>
  </g>
</svg>