<?xml version="1.0" encoding="utf-8"?>
<!-- Generator: Adobe Illustrator 27.2.0, SVG Export Plug-In . SVG Version: 6.00 Build 0)  -->
<svg version="1.1" id="Layer_1" xmlns="http://www.w3.org/2000/svg" xmlns:xlink="http://www.w3.org/1999/xlink" x="0px" y="0px"
	 viewBox="0 0 216.3 117.3" style="enable-background:new 0 0 216.3 117.3;" xml:space="preserve">
<style type="text/css">
	.st0{font-family:'Poppins-Bold';}
	.st1{font-size:52px;}
</style>
<g>
	<g>
		<path d="M43.8,97.6C32.9,97.6,22.4,96,13,93c2.6,5.6,5.9,11.2,9.8,16.9c0.8,1.2,2.2,2,3.8,2.2c12.4,1.5,23.6,1.3,34,0
			c1.6-0.2,2.9-1,3.8-2.2c3.9-5.6,7.1-11.2,9.8-16.8C64.9,96,54.6,97.6,43.8,97.6z"/>
		<path d="M43.8,19.2c10.6,0,20.8,1.5,30,4.3c-2.6-5.3-5.7-10.7-9.4-16c-0.8-1.1-2.1-1.9-3.6-2.2C49.4,3.5,38,3.5,26.5,5.3
			c-1.5,0.2-2.8,1-3.6,2.2c-3.8,5.4-6.9,10.8-9.5,16.1C22.7,20.7,33,19.2,43.8,19.2z"/>
	</g>
	<g>
		<path d="M43.8,35.6c13,0,25.4,1.4,35.9,3.9c-0.9-3.3-2-6.7-3.3-10C67.1,26,55.8,24,43.8,24c-12.2,0-23.6,2.1-33.1,5.7
			c-1.3,3.3-2.4,6.6-3.3,10C18.1,37,30.6,35.6,43.8,35.6z"/>
		<path d="M80.7,73.8c2.1-10.3,2.1-20.7-0.2-31c-10.1-2.8-22.8-4.4-36.7-4.4c-14.1,0-27,1.7-37.1,4.5C4.5,53.2,4.4,63.5,6.5,73.7
			c10.1,2.8,23.1,4.6,37.3,4.6C57.8,78.3,70.6,76.6,80.7,73.8z"/>
		<path d="M43.8,81.1c-13.3,0-25.9-1.4-36.5-4.1c0.8,3.3,1.9,6.6,3.1,9.9c9.6,3.7,21,5.8,33.4,5.8c12.2,0,23.5-2.1,33-5.7
			c1.3-3.3,2.3-6.6,3.2-9.9C69.4,79.7,56.9,81.1,43.8,81.1z"/>
	</g>
	<text transform="matrix(1 0 0 1 94.9024 51.8262)" class="st0 st1">Billy</text>
	<text transform="matrix(1 0 0 1 94.9024 101.8262)" class="st0 st1">Beer</text>
</g>
</svg>
