<?xml version="1.0" encoding="UTF-8"?>
<svg id="Layer_1" data-name="Layer 1" xmlns="http://www.w3.org/2000/svg" viewBox="0 0 206.33 129.34">
  <defs>
    <style>
      .cls-1 {
        font-family: Poppins-Bold, Poppins;
        font-size: 52px;
        font-weight: 700;
        letter-spacing: -.02em;
      }

      .cls-1, .cls-2 {
        fill: #faa31b;
      }
    </style>
  </defs>
  <g>
    <path class="cls-2" d="m38.81,93.55c-10.93,0-21.45-1.59-30.81-4.59,2.63,5.62,5.89,11.24,9.81,16.86.83,1.2,2.25,2,3.84,2.19,12.36,1.46,23.62,1.35,34.02.02,1.57-.2,2.94-1.01,3.76-2.18,3.9-5.58,7.15-11.17,9.77-16.75-9.26,2.91-19.63,4.45-30.39,4.45Z"/>
    <path class="cls-2" d="m38.81,15.16c10.61,0,20.84,1.51,30.01,4.34-2.56-5.34-5.71-10.67-9.43-16.01-.8-1.14-2.11-1.93-3.62-2.16C44.34-.44,32.92-.44,21.5,1.32c-1.51.23-2.83,1.03-3.62,2.16-3.76,5.38-6.92,10.75-9.49,16.13,9.27-2.91,19.65-4.46,30.42-4.46Z"/>
  </g>
  <g>
    <path class="cls-2" d="m38.81,31.61c13.02,0,25.45,1.38,35.95,3.94-.87-3.34-1.97-6.68-3.3-10.02-9.41-3.5-20.62-5.54-32.65-5.54s-23.58,2.1-33.07,5.69c-1.31,3.32-2.39,6.63-3.26,9.95,10.58-2.62,23.15-4.03,36.33-4.03Z"/>
    <path class="cls-2" d="m75.7,69.84c2.13-10.33,2.08-20.67-.16-31-10.06-2.76-22.84-4.41-36.73-4.41s-27,1.7-37.11,4.52c-2.21,10.26-2.26,20.53-.16,30.79,10.14,2.85,23.13,4.56,37.27,4.56s26.81-1.67,36.89-4.46Z"/>
    <path class="cls-2" d="m38.81,77.1c-13.26,0-25.9-1.43-36.52-4.08.82,3.29,1.86,6.58,3.13,9.88,9.56,3.67,21.04,5.81,33.39,5.81s23.51-2.08,32.98-5.66c1.28-3.31,2.33-6.63,3.16-9.94-10.54,2.59-23.04,3.98-36.14,3.98Z"/>
  </g>
  <text class="cls-1" transform="translate(89.9 47.83)"><tspan x="0" y="0">Billy</tspan><tspan x="0" y="50">Beer</tspan></text>
</svg>